<mxfile host="app.diagrams.net" agent="Mozilla/5.0 (Windows NT 10.0; Win64; x64) AppleWebKit/537.36 (KHTML, like Gecko) Chrome/128.0.0.0 Safari/537.36" version="24.7.12">
  <diagram id="C2fSY1v2SiZeoUbDoYyL" name="Page-1">
    <mxGraphModel dx="1451" dy="696" grid="1" gridSize="10" guides="1" tooltips="1" connect="1" arrows="1" fold="1" page="1" pageScale="1" pageWidth="1169" pageHeight="827" math="0" shadow="0">
      <root>
        <mxCell id="0" />
        <mxCell id="1" parent="0" />
        <mxCell id="3ne1QswCM8ZiEu4GHsYG-31" value="Realtime Analyze&amp;nbsp;" style="text;html=1;strokeColor=none;fillColor=none;align=center;verticalAlign=middle;whiteSpace=wrap;rounded=0;fontStyle=1;fontSize=20;labelBackgroundColor=none;" parent="1" vertex="1">
          <mxGeometry x="189.5" y="50" width="790" height="30" as="geometry" />
        </mxCell>
        <mxCell id="3ne1QswCM8ZiEu4GHsYG-32" value="" style="line;strokeWidth=2;html=1;fontSize=20;labelBackgroundColor=none;" parent="1" vertex="1">
          <mxGeometry x="103.5" y="80" width="960" height="10" as="geometry" />
        </mxCell>
        <mxCell id="h5P4t6taOg3Ozaykp1mF-3" style="edgeStyle=orthogonalEdgeStyle;rounded=0;orthogonalLoop=1;jettySize=auto;html=1;exitX=1;exitY=0.5;exitDx=0;exitDy=0;labelBackgroundColor=none;fontColor=default;" edge="1" parent="1" source="h5P4t6taOg3Ozaykp1mF-1" target="h5P4t6taOg3Ozaykp1mF-2">
          <mxGeometry relative="1" as="geometry">
            <Array as="points">
              <mxPoint x="480" y="358" />
              <mxPoint x="480" y="358" />
            </Array>
          </mxGeometry>
        </mxCell>
        <mxCell id="h5P4t6taOg3Ozaykp1mF-11" style="edgeStyle=orthogonalEdgeStyle;rounded=0;orthogonalLoop=1;jettySize=auto;html=1;exitX=0.5;exitY=1;exitDx=0;exitDy=0;labelBackgroundColor=none;fontColor=default;" edge="1" parent="1" source="h5P4t6taOg3Ozaykp1mF-1" target="h5P4t6taOg3Ozaykp1mF-10">
          <mxGeometry relative="1" as="geometry">
            <Array as="points">
              <mxPoint x="300" y="470" />
              <mxPoint x="300" y="470" />
            </Array>
          </mxGeometry>
        </mxCell>
        <mxCell id="h5P4t6taOg3Ozaykp1mF-18" style="edgeStyle=orthogonalEdgeStyle;rounded=0;orthogonalLoop=1;jettySize=auto;html=1;exitX=0.5;exitY=1;exitDx=0;exitDy=0;entryX=0.5;entryY=0;entryDx=0;entryDy=0;labelBackgroundColor=none;fontColor=default;" edge="1" parent="1" source="h5P4t6taOg3Ozaykp1mF-1" target="h5P4t6taOg3Ozaykp1mF-17">
          <mxGeometry relative="1" as="geometry" />
        </mxCell>
        <mxCell id="h5P4t6taOg3Ozaykp1mF-19" style="edgeStyle=orthogonalEdgeStyle;rounded=0;orthogonalLoop=1;jettySize=auto;html=1;exitX=0.5;exitY=1;exitDx=0;exitDy=0;entryX=0.5;entryY=0;entryDx=0;entryDy=0;labelBackgroundColor=none;fontColor=default;" edge="1" parent="1" source="h5P4t6taOg3Ozaykp1mF-1" target="h5P4t6taOg3Ozaykp1mF-4">
          <mxGeometry relative="1" as="geometry" />
        </mxCell>
        <mxCell id="h5P4t6taOg3Ozaykp1mF-1" value="data" style="ellipse;whiteSpace=wrap;html=1;labelBackgroundColor=none;" vertex="1" parent="1">
          <mxGeometry x="240" y="317" width="120" height="82" as="geometry" />
        </mxCell>
        <mxCell id="h5P4t6taOg3Ozaykp1mF-25" style="edgeStyle=orthogonalEdgeStyle;rounded=0;orthogonalLoop=1;jettySize=auto;html=1;exitX=1;exitY=0.5;exitDx=0;exitDy=0;exitPerimeter=0;entryX=0.5;entryY=1;entryDx=0;entryDy=0;labelBackgroundColor=none;fontColor=default;" edge="1" parent="1" source="h5P4t6taOg3Ozaykp1mF-2" target="h5P4t6taOg3Ozaykp1mF-12">
          <mxGeometry relative="1" as="geometry" />
        </mxCell>
        <mxCell id="h5P4t6taOg3Ozaykp1mF-2" value="data lake&lt;div&gt;&lt;br&gt;&lt;/div&gt;" style="shape=cylinder3;whiteSpace=wrap;html=1;boundedLbl=1;backgroundOutline=1;size=15;labelBackgroundColor=none;direction=east;" vertex="1" parent="1">
          <mxGeometry x="541.5" y="292" width="88.5" height="119.5" as="geometry" />
        </mxCell>
        <mxCell id="h5P4t6taOg3Ozaykp1mF-4" value="text hồ sơ bệnh án" style="ellipse;whiteSpace=wrap;html=1;labelBackgroundColor=none;" vertex="1" parent="1">
          <mxGeometry x="69.5" y="490" width="120" height="80" as="geometry" />
        </mxCell>
        <mxCell id="h5P4t6taOg3Ozaykp1mF-27" style="edgeStyle=orthogonalEdgeStyle;rounded=0;orthogonalLoop=1;jettySize=auto;html=1;exitX=0.5;exitY=1;exitDx=0;exitDy=0;labelBackgroundColor=none;fontColor=default;" edge="1" parent="1" source="h5P4t6taOg3Ozaykp1mF-10" target="h5P4t6taOg3Ozaykp1mF-16">
          <mxGeometry relative="1" as="geometry" />
        </mxCell>
        <mxCell id="h5P4t6taOg3Ozaykp1mF-10" value="camera" style="ellipse;whiteSpace=wrap;html=1;labelBackgroundColor=none;" vertex="1" parent="1">
          <mxGeometry x="240" y="490" width="120" height="80" as="geometry" />
        </mxCell>
        <mxCell id="h5P4t6taOg3Ozaykp1mF-29" style="edgeStyle=orthogonalEdgeStyle;rounded=0;orthogonalLoop=1;jettySize=auto;html=1;exitX=1;exitY=0.5;exitDx=0;exitDy=0;labelBackgroundColor=none;fontColor=default;" edge="1" parent="1" source="h5P4t6taOg3Ozaykp1mF-12">
          <mxGeometry relative="1" as="geometry">
            <mxPoint x="1030" y="310" as="targetPoint" />
            <Array as="points">
              <mxPoint x="1030" y="190" />
            </Array>
          </mxGeometry>
        </mxCell>
        <mxCell id="h5P4t6taOg3Ozaykp1mF-12" value="deepstream + yolo&lt;div&gt;&lt;br&gt;&lt;/div&gt;" style="ellipse;whiteSpace=wrap;html=1;labelBackgroundColor=none;" vertex="1" parent="1">
          <mxGeometry x="730" y="150" width="120" height="80" as="geometry" />
        </mxCell>
        <mxCell id="h5P4t6taOg3Ozaykp1mF-30" style="edgeStyle=orthogonalEdgeStyle;rounded=0;orthogonalLoop=1;jettySize=auto;html=1;exitX=1;exitY=0.5;exitDx=0;exitDy=0;labelBackgroundColor=none;fontColor=default;" edge="1" parent="1">
          <mxGeometry relative="1" as="geometry">
            <mxPoint x="1030" y="397" as="targetPoint" />
            <mxPoint x="850" y="547" as="sourcePoint" />
          </mxGeometry>
        </mxCell>
        <mxCell id="h5P4t6taOg3Ozaykp1mF-13" value="multil model nlp" style="ellipse;whiteSpace=wrap;html=1;labelBackgroundColor=none;" vertex="1" parent="1">
          <mxGeometry x="730" y="480" width="120" height="80" as="geometry" />
        </mxCell>
        <mxCell id="h5P4t6taOg3Ozaykp1mF-41" style="edgeStyle=orthogonalEdgeStyle;rounded=0;orthogonalLoop=1;jettySize=auto;html=1;entryX=0.5;entryY=1;entryDx=0;entryDy=0;" edge="1" parent="1" source="h5P4t6taOg3Ozaykp1mF-16" target="h5P4t6taOg3Ozaykp1mF-13">
          <mxGeometry relative="1" as="geometry" />
        </mxCell>
        <mxCell id="h5P4t6taOg3Ozaykp1mF-42" style="edgeStyle=orthogonalEdgeStyle;rounded=0;orthogonalLoop=1;jettySize=auto;html=1;exitX=1;exitY=0.5;exitDx=0;exitDy=0;entryX=0;entryY=0.5;entryDx=0;entryDy=0;" edge="1" parent="1" target="h5P4t6taOg3Ozaykp1mF-12">
          <mxGeometry relative="1" as="geometry">
            <mxPoint x="410.0000000000002" y="719.9999999999998" as="sourcePoint" />
            <mxPoint x="680" y="190" as="targetPoint" />
            <Array as="points">
              <mxPoint x="660" y="721" />
              <mxPoint x="660" y="190" />
            </Array>
          </mxGeometry>
        </mxCell>
        <mxCell id="h5P4t6taOg3Ozaykp1mF-16" value="streaming server" style="ellipse;whiteSpace=wrap;html=1;labelBackgroundColor=none;" vertex="1" parent="1">
          <mxGeometry x="340" y="680" width="120" height="80" as="geometry" />
        </mxCell>
        <mxCell id="h5P4t6taOg3Ozaykp1mF-39" style="edgeStyle=orthogonalEdgeStyle;rounded=0;orthogonalLoop=1;jettySize=auto;html=1;exitX=0.5;exitY=1;exitDx=0;exitDy=0;entryX=0.5;entryY=0;entryDx=0;entryDy=0;labelBackgroundColor=none;fontColor=default;" edge="1" parent="1" source="h5P4t6taOg3Ozaykp1mF-17" target="h5P4t6taOg3Ozaykp1mF-16">
          <mxGeometry relative="1" as="geometry" />
        </mxCell>
        <mxCell id="h5P4t6taOg3Ozaykp1mF-17" value="micro" style="ellipse;whiteSpace=wrap;html=1;labelBackgroundColor=none;" vertex="1" parent="1">
          <mxGeometry x="440" y="490" width="120" height="80" as="geometry" />
        </mxCell>
        <mxCell id="h5P4t6taOg3Ozaykp1mF-21" style="edgeStyle=orthogonalEdgeStyle;rounded=0;orthogonalLoop=1;jettySize=auto;html=1;exitX=1;exitY=0.5;exitDx=0;exitDy=0;exitPerimeter=0;entryX=0.5;entryY=0;entryDx=0;entryDy=0;labelBackgroundColor=none;fontColor=default;" edge="1" parent="1" source="h5P4t6taOg3Ozaykp1mF-2" target="h5P4t6taOg3Ozaykp1mF-13">
          <mxGeometry relative="1" as="geometry">
            <mxPoint x="790" y="470" as="targetPoint" />
          </mxGeometry>
        </mxCell>
        <mxCell id="h5P4t6taOg3Ozaykp1mF-31" value="training model&lt;div&gt;&lt;br&gt;&lt;/div&gt;" style="text;html=1;align=center;verticalAlign=middle;resizable=0;points=[];autosize=1;strokeColor=none;fillColor=none;labelBackgroundColor=none;" vertex="1" parent="1">
          <mxGeometry x="870" y="160" width="100" height="40" as="geometry" />
        </mxCell>
        <mxCell id="h5P4t6taOg3Ozaykp1mF-33" value="training model" style="text;html=1;align=center;verticalAlign=middle;resizable=0;points=[];autosize=1;strokeColor=none;fillColor=none;labelBackgroundColor=none;" vertex="1" parent="1">
          <mxGeometry x="879.5" y="550" width="100" height="30" as="geometry" />
        </mxCell>
        <mxCell id="h5P4t6taOg3Ozaykp1mF-34" value="test" style="ellipse;whiteSpace=wrap;html=1;labelBackgroundColor=none;" vertex="1" parent="1">
          <mxGeometry x="970" y="317" width="120" height="80" as="geometry" />
        </mxCell>
        <mxCell id="h5P4t6taOg3Ozaykp1mF-36" value="production" style="ellipse;whiteSpace=wrap;html=1;labelBackgroundColor=none;" vertex="1" parent="1">
          <mxGeometry x="1180" y="311.75" width="120" height="80" as="geometry" />
        </mxCell>
        <mxCell id="h5P4t6taOg3Ozaykp1mF-37" style="edgeStyle=orthogonalEdgeStyle;rounded=0;orthogonalLoop=1;jettySize=auto;html=1;exitX=1;exitY=0.5;exitDx=0;exitDy=0;entryX=0.083;entryY=0.566;entryDx=0;entryDy=0;entryPerimeter=0;labelBackgroundColor=none;fontColor=default;" edge="1" parent="1" source="h5P4t6taOg3Ozaykp1mF-34" target="h5P4t6taOg3Ozaykp1mF-36">
          <mxGeometry relative="1" as="geometry" />
        </mxCell>
        <mxCell id="h5P4t6taOg3Ozaykp1mF-47" style="edgeStyle=orthogonalEdgeStyle;rounded=0;orthogonalLoop=1;jettySize=auto;html=1;verticalAlign=middle;exitX=0.5;exitY=1;exitDx=0;exitDy=0;movable=1;resizable=1;rotatable=1;deletable=1;editable=1;locked=0;connectable=1;entryX=0;entryY=0.5;entryDx=0;entryDy=0;" edge="1" parent="1">
          <mxGeometry relative="1" as="geometry">
            <mxPoint x="129.5" y="570" as="sourcePoint" />
            <mxPoint x="730" y="520" as="targetPoint" />
            <Array as="points">
              <mxPoint x="240" y="571" />
              <mxPoint x="240" y="780" />
              <mxPoint x="571" y="780" />
              <mxPoint x="571" y="520" />
            </Array>
          </mxGeometry>
        </mxCell>
      </root>
    </mxGraphModel>
  </diagram>
</mxfile>
